<svg id='Customer_Relationship_Management_Marketing_Automaton_1_24' width='24' height='24' viewBox='0 0 24 24' xmlns='http://www.w3.org/2000/svg' xmlns:xlink='http://www.w3.org/1999/xlink'><rect width='24' height='24' stroke='none' fill='#000000' opacity='0'/>


<g transform="matrix(0.83 0 0 0.83 12 12)" >
<g style="" >
<g transform="matrix(1 0 0 1 -3.49 3.36)" >
<line style="stroke: rgb(0,0,0); stroke-width: 1.5; stroke-dasharray: none; stroke-linecap: round; stroke-dashoffset: 0; stroke-linejoin: round; stroke-miterlimit: 4; fill: none; fill-rule: nonzero; opacity: 1;" x1="-0.8944999999999994" y1="-1.4085" x2="0.8944999999999994" y2="1.4085" />
</g>
<g transform="matrix(1 0 0 1 3.51 -1.55)" >
<line style="stroke: rgb(0,0,0); stroke-width: 1.5; stroke-dasharray: none; stroke-linecap: round; stroke-dashoffset: 0; stroke-linejoin: round; stroke-miterlimit: 4; fill: none; fill-rule: nonzero; opacity: 1;" x1="-2.2615000000000007" y1="-3.5620000000000003" x2="2.2615000000000007" y2="3.5620000000000003" />
</g>
<g transform="matrix(1 0 0 1 0.76 -0.15)" >
<polygon style="stroke: rgb(0,0,0); stroke-width: 1.5; stroke-dasharray: none; stroke-linecap: round; stroke-dashoffset: 0; stroke-linejoin: round; stroke-miterlimit: 4; fill: none; fill-rule: nonzero; opacity: 1;" points="4.53,1.39 -3.92,4.04 -4.53,3.08 1.08,-4.04 4.53,1.39 " />
</g>
<g transform="matrix(1 0 0 1 0.32 3.89)" >
<path style="stroke: rgb(0,0,0); stroke-width: 1.5; stroke-dasharray: none; stroke-linecap: round; stroke-dashoffset: 0; stroke-linejoin: round; stroke-miterlimit: 4; fill: none; fill-rule: nonzero; opacity: 1;" transform=" translate(-12.32, -15.89)" d="M 11.586 15.025 C 12.120000000000001 16.437 12.120000000000001 16.437 13.045 16.764" stroke-linecap="round" />
</g>
<g transform="matrix(1 0 0 1 0 0)" >
<path style="stroke: rgb(0,0,0); stroke-width: 1.5; stroke-dasharray: none; stroke-linecap: round; stroke-dashoffset: 0; stroke-linejoin: round; stroke-miterlimit: 4; fill: none; fill-rule: nonzero; opacity: 1;" transform=" translate(-12, -12)" d="M 10.546 2.438 C 10.917437317599262 2.849373306701126 11.445749444410243 3.084153855168093 12 3.084153855168093 C 12.554250555589757 3.084153855168093 13.082562682400736 2.849373306701126 13.453999999999999 2.438 L 14.393999999999998 1.3960000000000001 C 14.949404668564814 0.7803180308197117 15.832273207790514 0.5809922870553323 16.598325837792945 0.8983280730985546 C 17.364378467795376 1.2156638591417768 17.847671199134854 1.9809192057524179 17.805 2.8089999999999984 L 17.733 4.209 C 17.70487169367581 4.762784390277618 17.912507741555874 5.3025912216406645 18.304501947318048 5.694775993375498 C 18.696496153080222 6.086960765110332 19.236202004022424 6.294859149000677 19.79 6.267000000000001 L 21.189999999999998 6.195 C 22.017521782722422 6.153705532060704 22.78153518757488 6.63748433019466 23.098055722019325 7.403194644371956 C 23.414576256463768 8.168904958549252 23.21514746431952 9.05094042562644 22.6 9.605999999999998 L 21.558 10.546 C 21.146626693298874 10.917437317599262 20.911846144831905 11.445749444410243 20.911846144831905 12 C 20.911846144831905 12.554250555589757 21.146626693298874 13.082562682400736 21.558 13.453999999999999 L 22.6 14.393999999999998 C 23.21568196918029 14.949404668564814 23.41500771294467 15.832273207790518 23.097671926901445 16.59832583779295 C 22.78033614085822 17.364378467795376 22.01508079424758 17.847671199134858 21.186999999999998 17.805 L 19.787000000000003 17.733 C 19.23329798636524 17.70484672975804 18.693574270809993 17.912509826355954 18.301542048582974 18.304542048582974 C 17.909509826355958 18.69657427080999 17.70184672975804 19.236297986365237 17.730000000000004 19.79 L 17.802000000000003 21.189999999999998 C 17.84173871917301 22.01608507344059 17.358411626125548 22.778135658790482 16.59419604600816 23.094316400564402 C 15.829980465890774 23.410497142338322 14.949527677557853 23.212686472700383 14.393999999999998 22.6 L 13.454 21.558 C 13.082562682400738 21.146626693298874 12.554250555589757 20.911846144831905 12 20.911846144831905 C 11.445749444410243 20.911846144831905 10.917437317599264 21.146626693298874 10.546000000000001 21.558 L 9.606 22.6 C 9.050281998632045 23.210880458278776 8.171153916925693 23.40765648265814 7.4080418202361775 23.09197094412745 C 6.644929723546661 22.77628540559676 6.161743329090605 22.015944760867182 6.2 21.191 L 6.272 19.791 C 6.301208337447848 19.23603933746127 6.093217413897298 18.69480948861444 5.699876504540414 18.30223160720975 C 5.306535595183529 17.90965372580506 4.764902901167529 17.70271412511166 4.209999999999999 17.733 L 2.81 17.805 C 1.9824782172775768 17.846294467939295 1.2184648124251167 17.362515669805337 0.9019442779806757 16.596805355628042 C 0.5854237435362344 15.831095041450746 0.7848525356804821 14.94905957437356 1.399999999999999 14.394000000000002 L 2.442 13.454 C 2.853373306701126 13.082562682400738 3.088153855168093 12.554250555589759 3.088153855168093 12.000000000000002 C 3.088153855168093 11.445749444410245 2.8533733067011267 10.917437317599266 2.4420000000000006 10.546000000000003 L 1.4 9.606 C 0.7891195417212243 9.050281998632045 0.592343517341861 8.171153916925695 0.9080290558725503 7.408041820236178 C 1.2237145944032397 6.644929723546662 1.984055239132818 6.161743329090605 2.8089999999999993 6.2 L 4.209 6.272 C 4.763786106349708 6.300567602565973 5.304635741081676 6.092370366941812 5.697066946347548 5.699176418808562 C 6.08949815161342 5.305982470675312 6.2966448022706345 4.764729589451809 6.267 4.21 L 6.2 2.809 C 6.161743329090605 1.9840552391328188 6.644929723546662 1.2237145944032402 7.408041820236178 0.9080290558725506 C 8.171153916925693 0.592343517341861 9.050281998632045 0.7891195417212238 9.606 1.3999999999999995 Z" stroke-linecap="round" />
</g>
</g>
</g>
</svg>